<?xml version="1.0" encoding="utf-8"?>
<svg width="166px" height="166px" viewbox="0 0 166 166" version="1.1" xmlns:xlink="http://www.w3.org/1999/xlink" xmlns="http://www.w3.org/2000/svg">
  <defs>
    <path d="M0 0L85.0262 0L85.0262 136.877L0 136.877L0 0Z" id="path_1" />
    <clipPath id="mask_1">
      <use xlink:href="#path_1" />
    </clipPath>
  </defs>
  <g id="Group-9" transform="translate(0.5 0.5)">
    <g id="Group-4">
      <path d="M0 82.5C0 36.9365 36.9365 0 82.5 0C128.063 0 165 36.9365 165 82.5C165 128.063 128.063 165 82.5 165C36.9365 165 0 128.063 0 82.5Z" id="Ellipse" fill="#FFFFFF" fill-rule="evenodd" stroke="none" />
    </g>
    <g id="rickvanderzwet_Treble_clef_1" transform="translate(40 14.056641)">
      <path d="M0 0L85.0262 0L85.0262 136.877L0 136.877L0 0Z" id="Background" fill="none" fill-rule="evenodd" stroke="none" />
      <g clip-path="url(#mask_1)">
        <path d="M27.6029 0.0010179C22.7516 -0.124936 17.0779 11.4593 17.2665 21.7903C17.3103 24.9369 18.3034 31.3187 19.7525 39.3335C10.6139 48.7921 0.00218583 58.4992 0.00218583 71.2358C-0.143523 82.9077 6.98997 97.7781 23.9146 97.6351C26.5123 97.6172 28.8499 97.2954 30.9265 96.7412C32.4739 105.224 33.5028 111.92 33.4965 115.013C33.551 127.206 17.5311 128.413 16.7632 121.404C20.1395 121.288 22.8258 118.606 22.8258 115.29C22.8258 111.902 20.0207 109.14 16.5397 109.14C14.6258 109.14 12.9202 109.98 11.7635 111.294C11.7367 111.321 11.7054 111.348 11.6795 111.375C11.4185 111.652 11.1985 111.982 10.9813 112.358C10.268 113.565 9.80492 115.299 9.77989 117.775C9.77989 127.984 35.5919 134.554 35.5919 114.423C35.6321 111.714 34.4673 104.84 32.7706 96.178C51.1881 89.5183 46.5612 62.1732 29.6142 62.0445C28.3002 62.0579 27.0335 62.2108 25.8151 62.5201C24.8496 57.8744 23.9181 53.3654 23.1047 49.2221C29.54 42.9012 35.1592 34.7191 35.0332 19.6396C35.0528 8.81061 31.445 0.12706 27.6029 0.00101619L27.6029 0.0010179ZM28.748 10.4769C30.9435 10.265 32.6866 12.3031 32.6866 16.7897C32.8645 24.4953 27.4661 31.2248 21.0379 37.9927C20.4229 34.2856 20.0197 31.282 19.9759 29.5004C20.1583 17.4629 25.0883 10.83 28.748 10.4769L28.748 10.4769ZM21.8478 50.4235C22.6317 54.4596 23.4783 58.7119 24.3338 62.9947C13.1168 66.9852 7.73366 82.6199 23.6356 89.6166C13.9428 81.3648 18.7137 71.5969 25.7024 69.8949C27.4598 78.6696 29.1761 87.3281 30.5635 94.8103C28.68 95.4718 26.4819 95.8561 23.9145 95.874C17.4953 95.874 4.66751 91.7888 4.66751 76.3195C4.66751 63.363 13.6487 58.0978 21.8478 50.4235L21.8478 50.4235ZM27.2953 69.6151C27.5751 69.5982 27.8781 69.6053 28.1606 69.6151C39.8379 69.6151 44.2422 88.1595 32.3513 94.0862C30.8719 86.6488 29.0778 78.1208 27.2953 69.6151L27.2953 69.6151Z" transform="translate(18.60205 4.6920776)" id="path26" fill="#000000" fill-rule="evenodd" stroke="#000000" stroke-width="1" />
      </g>
    </g>
  </g>
</svg>