<?xml version="1.0" encoding="utf-8"?>
<svg width="170px" height="170px" viewbox="0 0 170 170" version="1.1" xmlns:xlink="http://www.w3.org/1999/xlink" xmlns="http://www.w3.org/2000/svg">
  <g id="Group-14" transform="translate(2.5 2.5)">
    <g id="Group-3">
      <path d="M0 82.5C0 36.9365 36.9365 0 82.5 0C128.063 0 165 36.9365 165 82.5C165 128.063 128.063 165 82.5 165C36.9365 165 0 128.063 0 82.5Z" id="Ellipse" fill="#FFFFFF" fill-rule="evenodd" stroke="none" />
      <path d="M8.999 0L27.1667 0L27.1667 86.0842Q27.1667 86.3051 27.1558 86.5258Q27.145 86.7464 27.1233 86.9663Q27.1017 87.1861 27.0693 87.4046Q27.0368 87.6231 26.9938 87.8398Q26.9507 88.0565 26.897 88.2708Q26.8433 88.4851 26.7792 88.6965Q26.715 88.9079 26.6406 89.1159Q26.5662 89.3239 26.4817 89.528Q26.3971 89.7321 26.3027 89.9318Q26.2082 90.1315 26.1041 90.3263Q25.9999 90.5211 25.8864 90.7106Q25.7728 90.9001 25.6501 91.0838Q25.5273 91.2674 25.3957 91.4449Q25.2641 91.6223 25.124 91.7931Q24.9838 91.9639 24.8355 92.1275Q24.6871 92.2912 24.5309 92.4474Q24.3747 92.6037 24.211 92.752Q24.0473 92.9004 23.8766 93.0405Q23.7058 93.1807 23.5284 93.3123Q23.3509 93.4438 23.1672 93.5666Q22.9836 93.6893 22.7941 93.8029Q22.6046 93.9165 22.4098 94.0206Q22.2149 94.1247 22.0152 94.2192Q21.8155 94.3136 21.6114 94.3982Q21.4073 94.4827 21.1993 94.5571Q20.9913 94.6316 20.7799 94.6957Q20.5685 94.7598 20.3542 94.8135Q20.14 94.8672 19.9233 94.9103Q19.7066 94.9534 19.4881 94.9858Q19.2696 95.0182 19.0497 95.0399Q18.8299 95.0615 18.6092 95.0724Q18.3886 95.0832 18.1677 95.0832L8.999 95.0832Q8.77809 95.0832 8.55744 95.0724Q8.33679 95.0615 8.11694 95.0399Q7.89709 95.0182 7.67857 94.9858Q7.46005 94.9534 7.24338 94.9103Q7.02671 94.8672 6.81242 94.8135Q6.59813 94.7598 6.38673 94.6957Q6.17533 94.6316 5.96733 94.5571Q5.75933 94.4827 5.55523 94.3982Q5.35113 94.3136 5.15143 94.2192Q4.95173 94.1247 4.7569 94.0206Q4.56207 93.9165 4.37259 93.8029Q4.1831 93.6893 3.99942 93.5666Q3.81574 93.4438 3.6383 93.3123Q3.46086 93.1807 3.29009 93.0405Q3.11933 92.9004 2.95564 92.752Q2.79195 92.6037 2.63575 92.4474Q2.47954 92.2912 2.33118 92.1275Q2.18282 91.9639 2.04268 91.7931Q1.90253 91.6223 1.77094 91.4449Q1.63934 91.2674 1.5166 91.0838Q1.39387 90.9001 1.2803 90.7106Q1.16673 90.5211 1.06259 90.3263Q0.958453 90.1315 0.864 89.9318Q0.769548 89.732 0.685008 89.528Q0.600468 89.3239 0.526045 89.1159Q0.451622 88.9079 0.387494 88.6965Q0.323366 88.4851 0.269689 88.2708Q0.216011 88.0565 0.172913 87.8398Q0.129815 87.6231 0.0974006 87.4046Q0.0649859 87.1861 0.0433326 86.9663Q0.0216794 86.7464 0.0108397 86.5258Q0 86.3051 0 86.0842L0 8.999Q0 8.77809 0.0108397 8.55744Q0.0216794 8.33679 0.0433326 8.11694Q0.0649859 7.89709 0.0974006 7.67857Q0.129815 7.46005 0.172913 7.24338Q0.216011 7.02671 0.269689 6.81242Q0.323366 6.59813 0.387494 6.38673Q0.451622 6.17533 0.526045 5.96733Q0.600468 5.75933 0.685008 5.55523Q0.769548 5.35113 0.864 5.15143Q0.958453 4.95173 1.06259 4.7569Q1.16673 4.56207 1.2803 4.37259Q1.39387 4.1831 1.5166 3.99942Q1.63934 3.81574 1.77094 3.6383Q1.90253 3.46086 2.04268 3.29009Q2.18282 3.11933 2.33118 2.95564Q2.47954 2.79195 2.63575 2.63575Q2.79195 2.47954 2.95564 2.33118Q3.11933 2.18282 3.29009 2.04268Q3.46086 1.90253 3.6383 1.77094Q3.81574 1.63934 3.99942 1.5166Q4.1831 1.39387 4.37259 1.2803Q4.56207 1.16673 4.7569 1.06259Q4.95173 0.958453 5.15143 0.864Q5.35113 0.769548 5.55523 0.685008Q5.75933 0.600468 5.96733 0.526045Q6.17533 0.451622 6.38673 0.387494Q6.59813 0.323366 6.81242 0.269689Q7.02671 0.216011 7.24338 0.172913Q7.46005 0.129815 7.67857 0.0974006Q7.89709 0.0649859 8.11694 0.0433326Q8.33679 0.0216794 8.55744 0.0108397Q8.77809 0 8.999 0Z" transform="translate(42.5 34.458374)" id="Rectangle" fill="#FFFFFF" fill-rule="evenodd" stroke="#000000" stroke-width="5" />
      <path d="M0 0L27.1667 0L27.1667 86.0842Q27.1667 86.3051 27.1558 86.5258Q27.145 86.7464 27.1233 86.9663Q27.1017 87.1861 27.0693 87.4046Q27.0368 87.6231 26.9938 87.8398Q26.9507 88.0565 26.897 88.2708Q26.8433 88.4851 26.7792 88.6965Q26.715 88.9079 26.6406 89.1159Q26.5662 89.3239 26.4817 89.528Q26.3971 89.7321 26.3027 89.9318Q26.2082 90.1315 26.1041 90.3263Q25.9999 90.5211 25.8864 90.7106Q25.7728 90.9001 25.6501 91.0838Q25.5273 91.2674 25.3957 91.4449Q25.2641 91.6223 25.124 91.7931Q24.9838 91.9639 24.8355 92.1275Q24.6871 92.2912 24.5309 92.4474Q24.3747 92.6037 24.211 92.752Q24.0473 92.9004 23.8766 93.0405Q23.7058 93.1807 23.5284 93.3123Q23.3509 93.4438 23.1672 93.5666Q22.9836 93.6893 22.7941 93.8029Q22.6046 93.9165 22.4098 94.0206Q22.2149 94.1247 22.0152 94.2192Q21.8155 94.3136 21.6114 94.3982Q21.4073 94.4827 21.1993 94.5571Q20.9913 94.6316 20.7799 94.6957Q20.5685 94.7598 20.3542 94.8135Q20.14 94.8672 19.9233 94.9103Q19.7066 94.9534 19.4881 94.9858Q19.2696 95.0182 19.0497 95.0399Q18.8299 95.0615 18.6092 95.0724Q18.3886 95.0832 18.1677 95.0832L8.999 95.0832Q8.77809 95.0832 8.55744 95.0724Q8.33679 95.0615 8.11694 95.0399Q7.89709 95.0182 7.67857 94.9858Q7.46005 94.9534 7.24338 94.9103Q7.02671 94.8672 6.81242 94.8135Q6.59813 94.7598 6.38673 94.6957Q6.17533 94.6316 5.96733 94.5571Q5.75933 94.4827 5.55523 94.3982Q5.35113 94.3136 5.15143 94.2192Q4.95173 94.1247 4.7569 94.0206Q4.56207 93.9165 4.37259 93.8029Q4.1831 93.6893 3.99942 93.5666Q3.81574 93.4438 3.6383 93.3123Q3.46086 93.1807 3.29009 93.0405Q3.11933 92.9004 2.95564 92.752Q2.79195 92.6037 2.63575 92.4474Q2.47954 92.2912 2.33118 92.1275Q2.18282 91.9639 2.04268 91.7931Q1.90253 91.6223 1.77094 91.4449Q1.63934 91.2674 1.5166 91.0838Q1.39387 90.9001 1.2803 90.7106Q1.16673 90.5211 1.06259 90.3263Q0.958453 90.1315 0.864 89.9318Q0.769548 89.732 0.685008 89.528Q0.600468 89.3239 0.526045 89.1159Q0.451622 88.9079 0.387494 88.6965Q0.323366 88.4851 0.269689 88.2708Q0.216011 88.0565 0.172913 87.8398Q0.129815 87.6231 0.0974006 87.4046Q0.0649859 87.1861 0.0433326 86.9663Q0.0216794 86.7464 0.0108397 86.5258Q0 86.3051 0 86.0842L0 0Z" transform="translate(69.66675 34.458496)" id="Rectangle-2" fill="#FFFFFF" fill-rule="evenodd" stroke="#000000" stroke-width="5" />
      <path d="M0 0L18.1677 0Q18.3886 0 18.6092 0.0108397Q18.8299 0.0216794 19.0497 0.0433326Q19.2696 0.0649859 19.4881 0.0974006Q19.7066 0.129815 19.9233 0.172913Q20.14 0.216011 20.3542 0.269689Q20.5685 0.323366 20.7799 0.387494Q20.9913 0.451622 21.1993 0.526045Q21.4073 0.600468 21.6114 0.685008Q21.8155 0.769548 22.0152 0.864Q22.2149 0.958453 22.4098 1.06259Q22.6046 1.16673 22.7941 1.2803Q22.9836 1.39387 23.1672 1.5166Q23.3509 1.63934 23.5284 1.77094Q23.7058 1.90253 23.8766 2.04268Q24.0473 2.18282 24.211 2.33118Q24.3747 2.47954 24.5309 2.63575Q24.6871 2.79195 24.8355 2.95564Q24.9838 3.11933 25.124 3.29009Q25.2641 3.46086 25.3957 3.6383Q25.5273 3.81574 25.6501 3.99942Q25.7728 4.1831 25.8864 4.37259Q25.9999 4.56207 26.1041 4.7569Q26.2082 4.95173 26.3027 5.15143Q26.3971 5.35113 26.4817 5.55523Q26.5662 5.75933 26.6406 5.96733Q26.715 6.17533 26.7792 6.38673Q26.8433 6.59813 26.897 6.81242Q26.9507 7.02671 26.9937 7.24338Q27.0368 7.46005 27.0693 7.67857Q27.1017 7.89709 27.1233 8.11694Q27.145 8.33679 27.1558 8.55744Q27.1667 8.77809 27.1667 8.999L27.1667 86.0842Q27.1667 86.3051 27.1558 86.5258Q27.145 86.7464 27.1233 86.9663Q27.1017 87.1861 27.0693 87.4046Q27.0368 87.6231 26.9938 87.8398Q26.9507 88.0565 26.897 88.2708Q26.8433 88.4851 26.7792 88.6965Q26.715 88.9079 26.6406 89.1159Q26.5662 89.3239 26.4817 89.528Q26.3971 89.7321 26.3027 89.9318Q26.2082 90.1315 26.1041 90.3263Q25.9999 90.5211 25.8864 90.7106Q25.7728 90.9001 25.6501 91.0838Q25.5273 91.2674 25.3957 91.4449Q25.2641 91.6223 25.124 91.7931Q24.9838 91.9639 24.8355 92.1275Q24.6871 92.2912 24.5309 92.4474Q24.3747 92.6037 24.211 92.752Q24.0473 92.9004 23.8766 93.0405Q23.7058 93.1807 23.5284 93.3123Q23.3509 93.4438 23.1672 93.5666Q22.9836 93.6893 22.7941 93.8029Q22.6046 93.9165 22.4098 94.0206Q22.2149 94.1247 22.0152 94.2192Q21.8155 94.3136 21.6114 94.3982Q21.4073 94.4827 21.1993 94.5571Q20.9913 94.6316 20.7799 94.6957Q20.5685 94.7598 20.3542 94.8135Q20.14 94.8672 19.9233 94.9103Q19.7066 94.9534 19.4881 94.9858Q19.2696 95.0182 19.0497 95.0399Q18.8299 95.0615 18.6092 95.0724Q18.3886 95.0832 18.1677 95.0832L8.999 95.0832Q8.77809 95.0832 8.55744 95.0724Q8.33679 95.0615 8.11694 95.0399Q7.89709 95.0182 7.67857 94.9858Q7.46005 94.9534 7.24338 94.9103Q7.02671 94.8672 6.81242 94.8135Q6.59813 94.7598 6.38673 94.6957Q6.17533 94.6316 5.96733 94.5571Q5.75933 94.4827 5.55523 94.3982Q5.35113 94.3136 5.15143 94.2192Q4.95173 94.1247 4.7569 94.0206Q4.56207 93.9165 4.37259 93.8029Q4.1831 93.6893 3.99942 93.5666Q3.81574 93.4438 3.6383 93.3123Q3.46086 93.1807 3.29009 93.0405Q3.11933 92.9004 2.95564 92.752Q2.79195 92.6037 2.63575 92.4474Q2.47954 92.2912 2.33118 92.1275Q2.18282 91.9639 2.04268 91.7931Q1.90253 91.6223 1.77094 91.4449Q1.63934 91.2674 1.5166 91.0838Q1.39387 90.9001 1.2803 90.7106Q1.16673 90.5211 1.06259 90.3263Q0.958453 90.1315 0.864 89.9318Q0.769548 89.732 0.685008 89.528Q0.600468 89.3239 0.526045 89.1159Q0.451622 88.9079 0.387494 88.6965Q0.323366 88.4851 0.269689 88.2708Q0.216011 88.0565 0.172913 87.8398Q0.129815 87.6231 0.0974006 87.4046Q0.0649859 87.1861 0.0433326 86.9663Q0.0216794 86.7464 0.0108397 86.5258Q0 86.3051 0 86.0842L0 0Z" transform="translate(96.833496 34.458374)" id="Rectangle-3" fill="#FFFFFF" fill-rule="evenodd" stroke="#000000" stroke-width="5" />
      <path d="M0 0L13.5833 0L13.5833 40.7509Q13.5833 40.9176 13.5752 41.0841Q13.567 41.2506 13.5506 41.4165Q13.5343 41.5824 13.5098 41.7473Q13.4854 41.9122 13.4529 42.0757Q13.4203 42.2392 13.3798 42.4009Q13.3393 42.5626 13.2909 42.7222Q13.2425 42.8817 13.1864 43.0386Q13.1302 43.1956 13.0664 43.3496Q13.0026 43.5036 12.9314 43.6543Q12.8601 43.805 12.7815 43.952Q12.7029 44.099 12.6172 44.242Q12.5315 44.385 12.4389 44.5236Q12.3463 44.6622 12.247 44.7961Q12.1477 44.93 12.0419 45.0589Q11.9362 45.1877 11.8242 45.3113Q11.7123 45.4348 11.5944 45.5527Q11.4765 45.6705 11.353 45.7825Q11.2295 45.8944 11.1006 46.0002Q10.9718 46.1059 10.8379 46.2052Q10.704 46.3045 10.5654 46.3972Q10.4268 46.4898 10.2838 46.5755Q10.1408 46.6612 9.99376 46.7398Q9.84675 46.8183 9.69605 46.8896Q9.54535 46.9609 9.39134 47.0247Q9.23733 47.0885 9.08037 47.1446Q8.92342 47.2008 8.76389 47.2492Q8.60437 47.2976 8.44266 47.3381Q8.28096 47.3786 8.11746 47.4111Q7.95396 47.4436 7.78906 47.4681Q7.62417 47.4926 7.45827 47.5089Q7.29237 47.5252 7.12587 47.5334Q6.95937 47.5416 6.79267 47.5416L6.79067 47.5416Q6.62397 47.5416 6.45746 47.5334Q6.29096 47.5252 6.12506 47.5089Q5.95917 47.4926 5.79427 47.4681Q5.62937 47.4436 5.46587 47.4111Q5.30237 47.3786 5.14067 47.3381Q4.97896 47.2976 4.81944 47.2492Q4.65992 47.2008 4.50296 47.1446Q4.346 47.0885 4.19199 47.0247Q4.03798 46.9609 3.88728 46.8896Q3.73659 46.8183 3.58957 46.7398Q3.44255 46.6612 3.29957 46.5755Q3.15658 46.4898 3.01797 46.3972Q2.87937 46.3045 2.74547 46.2052Q2.61158 46.1059 2.48271 46.0002Q2.35385 45.8944 2.23033 45.7825Q2.10682 45.6705 1.98894 45.5527Q1.87106 45.4348 1.75911 45.3113Q1.64716 45.1877 1.54141 45.0589Q1.43566 44.93 1.33635 44.7961Q1.23705 44.6622 1.14443 44.5236Q1.05182 44.385 0.966118 44.242Q0.880416 44.099 0.801833 43.952Q0.723251 43.805 0.651977 43.6543Q0.580702 43.5036 0.516909 43.3496Q0.453115 43.1956 0.396955 43.0386Q0.340795 42.8817 0.292404 42.7222Q0.244013 42.5626 0.203508 42.4009Q0.163003 42.2392 0.130481 42.0757Q0.0979589 41.9122 0.0734987 41.7473Q0.0490385 41.5824 0.0326989 41.4165Q0.0163593 41.2506 0.00817965 41.0841Q0 40.9176 0 40.7509L0 0Z" transform="translate(62.875 34.458374)" id="Rectangle-4" fill="#000000" fill-rule="evenodd" stroke="#000000" stroke-width="5" />
      <path d="M0 0L13.5833 0L13.5833 40.7509Q13.5833 40.9176 13.5752 41.0841Q13.567 41.2506 13.5506 41.4165Q13.5343 41.5824 13.5098 41.7473Q13.4854 41.9122 13.4529 42.0757Q13.4203 42.2392 13.3798 42.4009Q13.3393 42.5626 13.2909 42.7222Q13.2425 42.8817 13.1864 43.0386Q13.1302 43.1956 13.0664 43.3496Q13.0026 43.5036 12.9314 43.6543Q12.8601 43.805 12.7815 43.952Q12.7029 44.099 12.6172 44.242Q12.5315 44.385 12.4389 44.5236Q12.3463 44.6622 12.247 44.7961Q12.1477 44.93 12.0419 45.0589Q11.9362 45.1877 11.8242 45.3113Q11.7123 45.4348 11.5944 45.5527Q11.4765 45.6705 11.353 45.7825Q11.2295 45.8944 11.1006 46.0002Q10.9718 46.1059 10.8379 46.2052Q10.704 46.3045 10.5654 46.3972Q10.4268 46.4898 10.2838 46.5755Q10.1408 46.6612 9.99376 46.7398Q9.84675 46.8183 9.69605 46.8896Q9.54535 46.9609 9.39134 47.0247Q9.23733 47.0885 9.08037 47.1446Q8.92342 47.2008 8.76389 47.2492Q8.60437 47.2976 8.44266 47.3381Q8.28096 47.3786 8.11746 47.4111Q7.95396 47.4436 7.78906 47.4681Q7.62417 47.4926 7.45827 47.5089Q7.29237 47.5252 7.12587 47.5334Q6.95937 47.5416 6.79267 47.5416L6.79067 47.5416Q6.62397 47.5416 6.45746 47.5334Q6.29096 47.5252 6.12506 47.5089Q5.95917 47.4926 5.79427 47.4681Q5.62937 47.4436 5.46587 47.4111Q5.30237 47.3786 5.14067 47.3381Q4.97896 47.2976 4.81944 47.2492Q4.65992 47.2008 4.50296 47.1446Q4.346 47.0885 4.19199 47.0247Q4.03798 46.9609 3.88728 46.8896Q3.73659 46.8183 3.58957 46.7398Q3.44255 46.6612 3.29957 46.5755Q3.15658 46.4898 3.01797 46.3972Q2.87937 46.3045 2.74547 46.2052Q2.61158 46.1059 2.48271 46.0002Q2.35385 45.8944 2.23033 45.7825Q2.10682 45.6705 1.98894 45.5527Q1.87106 45.4348 1.75911 45.3113Q1.64716 45.1877 1.54141 45.0589Q1.43566 44.93 1.33635 44.7961Q1.23705 44.6622 1.14443 44.5236Q1.05182 44.385 0.966118 44.242Q0.880416 44.099 0.801833 43.952Q0.723251 43.805 0.651977 43.6543Q0.580702 43.5036 0.516909 43.3496Q0.453115 43.1956 0.396955 43.0386Q0.340795 42.8817 0.292404 42.7222Q0.244013 42.5626 0.203508 42.4009Q0.163003 42.2392 0.130481 42.0757Q0.0979589 41.9122 0.0734987 41.7473Q0.0490385 41.5824 0.0326989 41.4165Q0.0163593 41.2506 0.00817965 41.0841Q0 40.9176 0 40.7509L0 0Z" transform="translate(90.04175 34.458374)" id="Rectangle-5" fill="#000000" fill-rule="evenodd" stroke="#000000" stroke-width="3" />
    </g>
  </g>
</svg>