<?xml version="1.0" encoding="utf-8"?>
<svg width="165px" height="165px" viewbox="0 0 165 165" version="1.1" xmlns:xlink="http://www.w3.org/1999/xlink" xmlns="http://www.w3.org/2000/svg">
  <g id="Group-13">
    <g id="Group-2">
      <path d="M0 82.5C0 36.9365 36.9365 0 82.5 0C128.063 0 165 36.9365 165 82.5C165 128.063 128.063 165 82.5 165C36.9365 165 0 128.063 0 82.5Z" id="Ellipse" fill="#FFFFFF" fill-rule="evenodd" stroke="none" />
      <path d="M0 0L65.2276 0L66.9594 21.8708L64.5221 21.8708C64.2228 17.5523 63.4959 14.2492 62.3415 11.9616C61.187 9.67404 59.6049 8.01716 57.5953 6.99097C55.5857 5.96477 52.4002 5.45167 48.0388 5.45167L18.3433 5.45167L44.832 39.4444L14.6874 75.0407L47.7182 75.0407C53.7043 75.0407 58.2794 74.0786 61.4435 72.1545C64.6077 70.2304 66.9807 66.2111 68.5628 60.0967L71 60.6739L67.28 86.9702L0 86.9702L0 84.6613L33.4797 45.1527L0 2.30894L0 0Z" transform="translate(47.671875 39.385986)" id="Σ" fill="#000000" fill-rule="evenodd" stroke="none" />
    </g>
  </g>
</svg>