<?xml version="1.0" encoding="utf-8"?>
<svg width="165px" height="165px" viewbox="0 0 165 165" version="1.1" xmlns:xlink="http://www.w3.org/1999/xlink" xmlns="http://www.w3.org/2000/svg">
  <defs>
    <path d="M0 0L124 0L124 124L0 124L0 0Z" id="path_1" />
    <clipPath id="mask_1">
      <use xlink:href="#path_1" />
    </clipPath>
  </defs>
  <g id="Group-10">
    <g id="Group-5">
      <path d="M0 82.5C0 36.9365 36.9365 0 82.5 0C128.063 0 165 36.9365 165 82.5C165 128.063 128.063 165 82.5 165C36.9365 165 0 128.063 0 82.5Z" id="Ellipse" fill="#FFFFFF" fill-rule="evenodd" stroke="none" />
    </g>
    <g id="noun-gymnast-4390558" transform="translate(19.998535 36)">
      <path d="M0 0L124 0L124 124L0 124L0 0Z" id="Background" fill="none" fill-rule="evenodd" stroke="none" />
      <g clip-path="url(#mask_1)">
        <g id="Group" transform="translate(14.467163 4.132202)">
          <path d="M32.4685 71.5351L20.2297 87.2703C19.8395 87.7727 19.2381 88.0682 18.5995 88.0682C17.9608 88.0682 17.3595 87.7727 16.9671 87.2703L4.72974 71.5351L9.96643 71.5351L18.5993 82.6349L27.2315 71.5351L32.4685 71.5351ZM85.0994 71.5351L76.4665 82.6349L67.8344 71.5351L62.5977 71.5351L74.8365 87.2703C75.2267 87.7727 75.828 88.0682 76.4667 88.0682C77.1054 88.0682 77.7067 87.7727 78.0991 87.2703L90.3364 71.5351L85.0994 71.5351ZM95.0666 65.3351L95.0666 61.202C95.0666 60.061 94.1407 59.1351 92.9997 59.1351L2.0669 59.1351C0.925855 59.1351 0 60.061 0 61.202L0 65.3351C0 66.4762 0.925855 67.402 2.0669 67.402L92.9997 67.402C94.1407 67.4013 95.0666 66.4755 95.0666 65.3351L95.0666 65.3351ZM55.089 26.3098C52.8054 26.3098 50.7385 27.2357 49.2447 28.7317C47.7486 30.2277 46.8228 32.2946 46.8228 34.576C46.8228 39.1415 50.5242 42.8429 55.0897 42.8429C59.6552 42.8429 63.3566 39.1415 63.3566 34.576C63.3559 30.011 59.6566 26.3098 55.089 26.3098L55.089 26.3098ZM50.2862 27.4564C49.9865 27.9069 49.6413 28.3345 49.2448 28.7317C46.0167 31.9598 40.7821 31.9598 37.5533 28.7317L22.9405 14.1181C19.7124 10.8901 19.7124 5.65549 22.9405 2.4267C24.5541 0.813039 26.6688 0.000732422 28.7826 0.000732422L53.7208 0.000732422L48.1968 8.26764L40.4718 8.26764L48.0834 15.8793L50.6258 12.0748L57.4644 1.83859C58.2283 0.69547 59.5056 0.00693307 60.8529 0.000733098C61.7165 0.00903667 62.5289 0.25054 63.1987 0.698924C65.0939 1.96383 65.6039 4.53655 64.3376 6.42985L60.345 12.4043L50.2862 27.4564ZM76.4661 4.13381C76.4661 6.41735 74.6165 8.2669 72.333 8.2669L68.0199 8.2669C69.5429 5.64235 69.4668 2.49878 68.024 0L72.3329 0C74.6164 0 76.466 1.84955 76.466 4.13381L76.4661 4.13381Z" id="Shape" fill="#000000" fill-rule="evenodd" stroke="none" />
        </g>
      </g>
    </g>
  </g>
</svg>