<?xml version="1.0" encoding="utf-8"?>
<svg width="165px" height="165px" viewbox="0 0 165 165" version="1.1" xmlns:xlink="http://www.w3.org/1999/xlink" xmlns="http://www.w3.org/2000/svg">
  <defs>
    <path d="M0 0L122 0L122 122L0 122L0 0Z" id="path_1" />
    <clipPath id="mask_1">
      <use xlink:href="#path_1" />
    </clipPath>
  </defs>
  <g id="Group-11">
    <g id="Group-6">
      <path d="M0 82.5C0 36.9365 36.9365 0 82.5 0C128.063 0 165 36.9365 165 82.5C165 128.063 128.063 165 82.5 165C36.9365 165 0 128.063 0 82.5Z" id="Ellipse" fill="#FFFFFF" fill-rule="evenodd" stroke="none" />
    </g>
    <g id="noun-mountain-3202117" transform="translate(21.749756 27)">
      <path d="M0 0L122 0L122 122L0 122L0 0Z" id="Background" fill="none" fill-rule="evenodd" stroke="none" />
      <g clip-path="url(#mask_1)">
        <g id="Group" transform="translate(17.481201 2.4400635)">
          <path d="M86.658 35.6482L64.8932 1.09779C64.015 -0.365932 61.6724 -0.365932 60.794 1.09779L51.6195 15.6404L45.6659 6.07574C44.7876 4.61202 42.4451 4.61202 41.5667 6.07574L35.6131 15.6404L26.4385 1.09779C25.5602 -0.365932 23.2177 -0.365932 22.3393 1.09779L0.379286 35.6482C-0.108853 36.4291 -0.108853 37.4046 0.281931 38.0882C0.672034 38.8691 1.55094 39.3572 2.42913 39.3572L20.4851 39.3572L16.9715 45.018C16.4834 45.7989 16.4834 46.6771 16.8742 47.458C17.2643 48.2389 18.1432 48.727 19.0214 48.727L68.1142 48.727C68.9924 48.727 69.7733 48.2389 70.2614 47.458C70.6515 46.6771 70.6515 45.7015 70.164 45.018L66.6504 39.3572L84.7064 39.3572C85.5847 39.3572 86.3655 38.869 86.8536 38.0882C87.145 37.4053 87.145 36.4291 86.6569 35.6482L86.658 35.6482ZM6.8212 34.5746L24.194 6.95376L32.4903 20.2274L23.5111 34.5746L6.8212 34.5746ZM23.413 43.9445L43.5186 11.9317L63.6242 43.9445L23.413 43.9445ZM63.5266 34.5746L54.5474 20.2274L62.8437 6.95376L80.2165 34.5746L63.5266 34.5746Z" transform="translate(0 43.895805)" id="Shape" fill="#000000" fill-rule="evenodd" stroke="none" />
          <path d="M9.4672 18.9344C14.64 18.9344 18.9344 14.7379 18.9344 9.4672C18.9344 4.19715 14.7379 0 9.4672 0C4.19715 0 0 4.19645 0 9.4672C0 14.7373 4.29457 18.9344 9.4672 18.9344L9.4672 18.9344ZM9.46713 4.97728C12.0046 4.97728 14.0543 7.02722 14.0543 9.56447C14.0543 12.1017 12.0044 14.1517 9.46713 14.1517C6.92988 14.1517 4.87993 12.1017 4.87993 9.56447C4.87993 7.02722 6.92988 4.97727 9.46713 4.97727L9.46713 4.97728Z" transform="translate(34.051678 12.199972)" id="Shape" fill="#000000" fill-rule="evenodd" stroke="none" />
          <path d="M2.44 8.29635C3.80637 8.29635 4.88 7.22271 4.88 5.85635L4.88 2.44C4.88 1.07363 3.80637 0 2.44 0C1.07363 0 0 1.07363 0 2.44L0 5.85635C0 7.22271 1.07363 8.29635 2.44 8.29635L2.44 8.29635Z" transform="translate(41.078827 0)" id="Shape" fill="#000000" fill-rule="evenodd" stroke="none" />
          <path d="M3.17238 6.68598C3.66052 7.17412 4.24601 7.36951 4.92883 7.36951C5.51433 7.36951 6.19784 7.17412 6.68528 6.68598C7.66156 5.7097 7.66156 4.14856 6.68528 3.26964L4.14856 0.73221C3.17228 -0.244069 1.61113 -0.244069 0.73221 0.73221C-0.244068 1.70849 -0.244068 3.26964 0.73221 4.14856L3.17238 6.68598Z" transform="translate(27.463255 5.611483)" id="Shape" fill="#000000" fill-rule="evenodd" stroke="none" />
          <path d="M2.44 4.88L5.85635 4.88C7.22272 4.88 8.29635 3.80636 8.29635 2.44C8.29635 1.07364 7.22272 0 5.85635 0L2.44 0C1.07364 0 0 1.07364 0 2.44C0 3.80636 1.07364 4.88 2.44 4.88L2.44 4.88Z" transform="translate(21.85184 19.22719)" id="Shape" fill="#000000" fill-rule="evenodd" stroke="none" />
          <path d="M3.17221 0.732207L0.732209 3.17221C-0.244068 4.14848 -0.244068 5.70963 0.732209 6.58856C1.22035 7.07669 1.80584 7.27209 2.48866 7.27209C3.07416 7.27209 3.75767 7.0767 4.24511 6.58856L6.68511 4.14856C7.66139 3.17228 7.66139 1.61113 6.68511 0.732207C5.61218 -0.244071 4.14839 -0.244071 3.17221 0.732207L3.17221 0.732207Z" transform="translate(27.463522 30.402191)" id="Shape" fill="#000000" fill-rule="evenodd" stroke="none" />
          <path d="M0 2.44L0 5.85635C0 7.22272 1.07363 8.29635 2.44 8.29635C3.80637 8.29635 4.88 7.22272 4.88 5.85635L4.88 2.44C4.88 1.07364 3.80637 0 2.44 0C1.07363 0 0 1.07364 0 2.44L0 2.44Z" transform="translate(41.078827 35.038345)" id="Shape" fill="#000000" fill-rule="evenodd" stroke="none" />
          <path d="M4.14856 0.732207C3.17228 -0.244071 1.61113 -0.244071 0.73221 0.732207C-0.244068 1.70848 -0.244068 3.26963 0.73221 4.14856L3.17221 6.58856C3.66035 7.07669 4.24584 7.27209 4.92866 7.27209C5.51416 7.27209 6.19767 7.0767 6.68511 6.58856C7.66139 5.61228 7.66139 4.05113 6.68511 3.17221L4.14856 0.732207Z" transform="translate(52.253628 30.402191)" id="Shape" fill="#000000" fill-rule="evenodd" stroke="none" />
          <path d="M0 2.44C0 3.80636 1.07363 4.88 2.44 4.88L5.85634 4.88C7.22271 4.88 8.29634 3.80636 8.29634 2.44C8.29634 1.07364 7.22271 0 5.85634 0L2.44 0C1.07363 0 0 1.07364 0 2.44L0 2.44Z" transform="translate(56.890182 19.22719)" id="Shape" fill="#000000" fill-rule="evenodd" stroke="none" />
          <path d="M2.3921 7.27209C2.9776 7.27209 3.66111 7.0767 4.14855 6.58856L6.58855 4.14856C7.56483 3.17228 7.56483 1.61113 6.58855 0.73221C5.61228 -0.244069 4.05113 -0.244069 3.17221 0.73221L0.732209 3.17221C-0.244068 4.14849 -0.244068 5.70963 0.732209 6.58856C1.22103 6.97934 1.80652 7.27209 2.392 7.27209L2.3921 7.27209Z" transform="translate(52.25309 5.7086873)" id="Shape" fill="#000000" fill-rule="evenodd" stroke="none" />
        </g>
      </g>
    </g>
  </g>
</svg>